<?xml version="1.0" encoding="UTF-8" standalone="no"?>
<svg xmlns="http://www.w3.org/2000/svg" width="39.612801" height="40" viewBox="0 0 39.612801 40" fill="none" version="1.1" id="svg16"><path d="M 37.137,2.50464 H 2.49023 V 37.5024 H 37.137 Z" fill="#ffffff" id="path1"/><path d="m 22.5843,16.3506 h -6.9007 v 7.2952 h 6.9007 z" fill="url(#paint0_linear_1489_12)" id="path10" style="fill:url(#paint0_linear_1489_12)"/><path d="M 39.6128,0 H 0 v 40 h 39.6128 z m -9.4955,16.3506 h -3.5761 v 9.3942 c 0.0245,1.1324 -0.8626,2.0707 -1.9836,2.0989 H 13.7002 C 12.5791,27.8155 11.6921,26.8772 11.7166,25.7448 V 14.2552 c -0.0245,-1.1324 0.8625,-2.0672 1.9836,-2.0954 h 16.4136 c 1.1455,0.067 2.022,1.0583 1.9557,2.2154 -0.0594,1.0618 -0.901,1.9119 -1.9557,1.9754 z" fill="url(#paint1_linear_1489_12)" id="path11" style="fill:url(#paint1_linear_1489_12)"/><defs id="defs16"><linearGradient id="paint0_linear_1489_12" x1="-0.377341" y1="0.29272801" x2="39.768799" y2="40.0327" gradientUnits="userSpaceOnUse"><stop stop-color="#EA212E" id="stop11"/><stop offset="0.5" stop-color="#AE151E" id="stop12"/><stop offset="1" stop-color="#9B0F17" id="stop13"/></linearGradient><linearGradient id="paint1_linear_1489_12" x1="-0.041907001" y1="-0.045859601" x2="40.104198" y2="39.694099" gradientUnits="userSpaceOnUse"><stop stop-color="#EA212E" id="stop14"/><stop offset="0.5" stop-color="#AE151E" id="stop15"/><stop offset="1" stop-color="#9B0F17" id="stop16"/></linearGradient></defs></svg>
