<?xml version="1.0"?>
<svg xmlns="http://www.w3.org/2000/svg" width="139" height="40" viewBox="0 0 139 40" fill="none"><path d="M37.137 2.50464H2.49023V37.5024H37.137V2.50464Z" fill="white"/><path d="M58.946 23.6246H55.9636V13.405H52.8101V26.5984H58.946V23.6246Z" fill="black"/><path d="M71.0469 21.3175V13.405H67.9039V21.3175C67.9039 22.8027 67.1845 23.8504 65.6933 23.8504C64.2021 23.8504 63.4477 22.8239 63.4477 21.3352V13.405H60.3047V21.3352C60.3047 24.6335 61.988 26.8454 65.6688 26.8454C69.2344 26.8313 71.0469 24.4995 71.0469 21.3175V21.3175Z" fill="black"/><path d="M84.3524 26.5984V13.405H81.3141V21.374L76.4075 13.405H73.1597V26.5984H76.1979V18.7988L81.2373 26.5984H84.3524Z" fill="black"/><path d="M90.1006 13.405L85.5327 26.5984H88.6304L89.706 23.4518H93.8199L94.9164 26.5984H98.255L93.4252 13.405H90.1006V13.405ZM90.6105 20.7813L91.7629 17.4442L92.9154 20.7813H90.6105Z" fill="black"/><path d="M97.7383 16.3788H99.9244V26.5984H103.078V16.3788H105.25V13.405H97.7383V16.3788Z" fill="black"/><path d="M113.254 16.3788V13.405H107.062V26.5984H113.31V23.6246H110.216V21.3528H113.156V18.4178H110.216V16.3788H113.254Z" fill="black"/><path d="M121.936 16.1283C122.865 16.1318 123.762 16.4846 124.447 17.1196L126.315 14.7208C125.089 13.6554 123.514 13.0945 121.898 13.1545C117.728 13.1545 115.007 16.2059 115.007 20.0193C115.007 23.8327 117.613 26.8312 121.957 26.8312C123.574 26.8665 125.135 26.2491 126.298 25.1168L124.447 22.8661C123.766 23.494 122.879 23.8433 121.957 23.8574C119.764 23.8574 118.311 22.1606 118.311 19.977C118.311 17.7934 119.614 16.1283 121.936 16.1283V16.1283Z" fill="black"/><path d="M127.768 13.405V26.5984H130.922V21.3916H135.451V26.5984H138.605V13.405H135.451V18.3614H130.922V13.405H127.768Z" fill="black"/><path d="M22.5843 16.3506H15.6836V23.6458H22.5843V16.3506Z" fill="url(#paint0_linear_1489_12)"/><path d="M39.6128 0H0V40H39.6128V0ZM30.1173 16.3506H26.5412V25.7448C26.5657 26.8772 25.6786 27.8155 24.5576 27.8437H13.7002C12.5791 27.8155 11.6921 26.8772 11.7166 25.7448V14.2552C11.6921 13.1228 12.5791 12.188 13.7002 12.1598H30.1138C31.2593 12.2268 32.1358 13.2181 32.0695 14.3752C32.0101 15.437 31.1685 16.2871 30.1138 16.3506H30.1173Z" fill="url(#paint1_linear_1489_12)"/><defs><linearGradient id="paint0_linear_1489_12" x1="-0.377341" y1="0.292728" x2="39.7688" y2="40.0327" gradientUnits="userSpaceOnUse"><stop stop-color="#EA212E"/><stop offset="0.5" stop-color="#AE151E"/><stop offset="1" stop-color="#9B0F17"/></linearGradient><linearGradient id="paint1_linear_1489_12" x1="-0.041907" y1="-0.0458596" x2="40.1042" y2="39.6941" gradientUnits="userSpaceOnUse"><stop stop-color="#EA212E"/><stop offset="0.5" stop-color="#AE151E"/><stop offset="1" stop-color="#9B0F17"/></linearGradient></defs></svg>
